<?xml version="1.0" encoding="UTF-8" standalone="no"?>
<!-- Created with Inkscape (http://www.inkscape.org/) -->

<svg
   xmlns:dc="http://purl.org/dc/elements/1.1/"
   xmlns:cc="http://creativecommons.org/ns#"
   xmlns:rdf="http://www.w3.org/1999/02/22-rdf-syntax-ns#"
   xmlns:svg="http://www.w3.org/2000/svg"
   xmlns="http://www.w3.org/2000/svg"
   xmlns:sodipodi="http://sodipodi.sourceforge.net/DTD/sodipodi-0.dtd"
   xmlns:inkscape="http://www.inkscape.org/namespaces/inkscape"
   width="1024"
   height="1024"
   viewBox="0 0 270.93333 270.93334"
   version="1.1"
   id="svg8"
   inkscape:export-filename="C:\Users\lboog\app-icon.png"
   inkscape:export-xdpi="100.51469"
   inkscape:export-ydpi="100.51469"
   inkscape:version="0.92.4 (5da689c313, 2019-01-14)"
   sodipodi:docname="app-icon.svg">
  <defs
     id="defs2" />
  <sodipodi:namedview
     id="base"
     pagecolor="#ffffff"
     bordercolor="#666666"
     borderopacity="1.0"
     inkscape:pageopacity="0.0"
     inkscape:pageshadow="2"
     inkscape:zoom="0.7"
     inkscape:cx="190.50332"
     inkscape:cy="340.9336"
     inkscape:document-units="mm"
     inkscape:current-layer="layer1"
     showgrid="false"
     units="px"
     inkscape:pagecheckerboard="true"
     inkscape:window-width="1920"
     inkscape:window-height="1111"
     inkscape:window-x="-9"
     inkscape:window-y="-9"
     inkscape:window-maximized="1" />
  <metadata
     id="metadata5">
    <rdf:RDF>
      <cc:Work
         rdf:about="">
        <dc:format>image/svg+xml</dc:format>
        <dc:type
           rdf:resource="http://purl.org/dc/dcmitype/StillImage" />
        <dc:title></dc:title>
      </cc:Work>
    </rdf:RDF>
  </metadata>
  <g
     inkscape:label="Layer 1"
     inkscape:groupmode="layer"
     id="layer1"
     transform="translate(0,-26.06665)">
    <rect
       style="fill:#999999;fill-opacity:1;stroke:#000000;stroke-width:1.17788947;stroke-miterlimit:4;stroke-dasharray:none;stroke-opacity:1"
       id="rect4530"
       width="170.70506"
       height="170.17053"
       x="47.820404"
       y="116.14703" />
    <path
       style="fill:none;stroke:#e42936;stroke-width:0.26458332px;stroke-linecap:butt;stroke-linejoin:miter;stroke-opacity:1"
       d="M 50.219808,259.26968 C -12.72149,205.91997 35.542238,147.07156 35.542238,147.07156 57.694138,103.8048 40.961697,67.648787 40.961697,67.648787"
       id="path5946"
       inkscape:connector-curvature="0"
       sodipodi:nodetypes="ccc" />
    <path
       style="fill:none;stroke:#000000;stroke-width:0.26458332px;stroke-linecap:butt;stroke-linejoin:miter;stroke-opacity:1"
       d="m 40.961697,67.648787 c 38.413301,3.69941 61.847823,39.607143 61.847823,39.607143"
       id="path5948"
       inkscape:connector-curvature="0"
       sodipodi:nodetypes="cc" />
    <path
       style="fill:none;stroke:#000000;stroke-width:0.26458332px;stroke-linecap:butt;stroke-linejoin:miter;stroke-opacity:1"
       d="m 102.80952,107.25593 c -3.401781,-48.380947 53.67261,-78.997018 53.67261,-78.997018 -30.23808,44.979166 17.45374,87.864078 17.45374,87.864078"
       id="path5950"
       inkscape:connector-curvature="0"
       sodipodi:nodetypes="ccc" />
    <path
       style="fill:none;stroke:#000000;stroke-width:0.26458332px;stroke-linecap:butt;stroke-linejoin:miter;stroke-opacity:1"
       d="m 173.93587,116.12299 c 18.14285,-49.514891 54.36175,-47.420625 54.36175,-47.420625 -9.77215,47.444665 11.67927,80.254125 11.67927,80.254125 53.66285,104.5233 -21.50665,118.18337 -21.50665,118.18337"
       id="path5952"
       inkscape:connector-curvature="0"
       sodipodi:nodetypes="cccc" />
    <path
       style="fill:none;stroke:#000000;stroke-width:0.26458332px;stroke-linecap:butt;stroke-linejoin:miter;stroke-opacity:1"
       d="M 50.219808,259.26968 C 35.814117,222.96632 61.471992,220.02636 61.471992,220.02636"
       id="path5954"
       inkscape:connector-curvature="0"
       sodipodi:nodetypes="cc" />
    <path
       style="fill:none;stroke:#000000;stroke-width:0.26458332px;stroke-linecap:butt;stroke-linejoin:miter;stroke-opacity:1"
       d="m 218.47024,267.13986 c 3.36347,-28.13737 -19.62171,-49.51893 -19.62171,-49.51893"
       id="path5956"
       inkscape:connector-curvature="0"
       sodipodi:nodetypes="cc" />
    <path
       style="fill:none;stroke:#000000;stroke-width:0.26458332px;stroke-linecap:butt;stroke-linejoin:miter;stroke-opacity:1"
       d="m 61.471992,220.02636 c 44.901278,-15.23437 22.18337,-57.19568 22.18337,-57.19568 24.321528,3.20723 25.390608,22.98518 25.390608,22.98518 -6.94901,-51.58302 31.00326,-56.92841 31.00326,-56.92841 -13.89801,41.15951 11.75986,56.92841 11.75986,56.92841"
       id="path5958"
       inkscape:connector-curvature="0" />
    <path
       style="fill:none;stroke:#000000;stroke-width:0.26458332px;stroke-linecap:butt;stroke-linejoin:miter;stroke-opacity:1"
       d="m 198.84853,217.62093 c -25.65787,-32.3396 -5.87993,-48.91032 -5.87993,-48.91032 -29.13238,-5.87993 -41.15951,17.10525 -41.15951,17.10525"
       id="path5960"
       inkscape:connector-curvature="0"
       sodipodi:nodetypes="ccc" />
    <text
       xml:space="preserve"
       style="font-style:normal;font-weight:normal;font-size:198.76660156px;line-height:1.25;font-family:sans-serif;letter-spacing:0px;word-spacing:0px;fill:#000000;fill-opacity:1;stroke:none;stroke-width:1.87810969;stroke-miterlimit:4;stroke-dasharray:none"
       x="42.255852"
       y="317.8353"
       id="text5964"
       transform="scale(1.1200422,0.89282352)"><tspan
         sodipodi:role="line"
         id="tspan5962"
         x="42.255852"
         y="317.8353"
         style="stroke-width:1.87810969;stroke-miterlimit:4;stroke-dasharray:none">H</tspan></text>
    <path
       style="fill:#ff0000;fill-opacity:1;stroke:#ff0000;stroke-width:3.03118114;stroke-miterlimit:4;stroke-dasharray:none;stroke-opacity:1"
       d="M 161.04244,852.89968 C 151.87432,843.73254 139.75302,830.47455 134.10622,823.43747 74.141291,748.7088 55.131204,665.28103 77.86637,576.62295 c 9.934476,-38.74049 28.91616,-79.54939 51.6844,-111.11678 12.47773,-17.29993 28.57823,-56.86082 37.44775,-92.01363 8.72294,-34.57189 11.67006,-61.61078 10.89034,-99.91535 -0.53447,-26.25574 -1.59426,-37.93084 -5.27251,-58.08377 -2.27394,-12.45889 -8.9132,-37.56116 -12.50857,-47.29354 -1.70729,-4.62147 -3.10415,-8.59895 -3.10415,-8.83884 0,-0.96926 7.3189,-0.32761 17.75354,1.55645 57.82186,10.44025 113.55777,40.91924 164.45433,89.93127 13.13808,12.65162 30.25565,31.93641 40.76187,45.92263 4.18969,5.57746 8.01085,10.29236 8.49148,10.47755 0.48062,0.1852 0.87386,-6.95098 0.87386,-15.85816 0,-29.46738 4.88528,-55.52039 15.65239,-83.4735 C 428.5822,146.671 479.67041,86.404573 551.66475,34.8931 c 12.4204,-8.886713 34.50536,-22.932359 35.09747,-22.321373 0.2058,0.212359 -1.93454,4.24994 -4.75631,8.972404 -9.86363,16.507564 -18.41424,37.399768 -23.43442,57.258688 -7.85306,31.065191 -7.53133,69.803121 0.85436,102.871921 12.8345,50.61262 45.08596,106.09925 85.85802,147.71338 l 8.16513,8.33376 H 415.83291 178.21683 l -0.0248,218.44549 c -0.0239,210.60668 -0.0925,218.64781 -1.91247,224.08381 -4.91402,14.67805 -5.09904,35.65983 -0.51497,58.40247 1.8475,9.16596 2.44683,14.98797 2.23569,21.71828 l -0.28847,9.19526 z"
       id="path6054"
       inkscape:connector-curvature="0"
       transform="matrix(0.26458333,0,0,0.26458333,0,26.06665)" />
    <path
       style="fill:#ff0000;fill-opacity:1;stroke:#ff0000;stroke-width:4.33025885;stroke-miterlimit:4;stroke-dasharray:none;stroke-opacity:1"
       d="M 829.30444,622.87078 V 337.15649 h -84.28571 c -46.35715,0 -84.28572,-0.53203 -84.28572,-1.18227 0,-2.19733 7.36587,-19.44186 15.05518,-35.2463 31.63192,-65.01555 80.38726,-111.18026 137.10265,-129.81766 14.12106,-4.64036 31.46104,-8.03948 41.0119,-8.03948 h 7.2041 l -0.91146,5.35714 c -12.436,73.09257 -10.56973,132.30959 6.24686,198.21429 9.01279,35.32134 21.05487,66.03502 37.1817,94.83292 11.57536,20.67028 32.03883,65.88369 42.74909,94.45279 15.28525,40.7727 25.49094,80.28589 30.2563,117.14286 2.77262,21.44451 2.09997,60.4947 -1.37803,80 -11.56562,64.86217 -47.84652,112.98058 -106.66115,141.4619 -14.7006,7.11884 -33.724,14.25238 -38.00762,14.25238 -0.74748,0 -1.27809,-118.61655 -1.27809,-285.71428 z"
       id="path6056"
       inkscape:connector-curvature="0"
       transform="matrix(0.26458333,0,0,0.26458333,0,26.06665)" />
    <path
       style="fill:#ff0000;fill-opacity:1;stroke:#ff0000;stroke-width:4.33025885;stroke-miterlimit:4;stroke-dasharray:none;stroke-opacity:1"
       d="m 822.16158,843.40885 c 0,-5.06856 -10.24388,-32.4987 -17.61121,-47.1577 -11.92672,-23.73094 -33.72409,-55.2934 -45.25103,-65.52323 -4.11046,-3.64791 -18.0181,-21.84913 -24.8095,-32.46871 l -5.23317,-8.183 0.0481,-75.38843 c 0.0264,-41.46365 0.0371,-87.442 0.0239,-102.17415 l -0.0242,-26.78571 h -41.4286 -41.42857 l -0.001,28.21429 -10e-4,28.21428 -10.45771,4.7018 c -21.36798,9.60707 -41.32842,25.72359 -55.55669,44.85772 -3.97786,5.34941 -7.72107,9.7262 -8.31823,9.7262 -2.92781,0 -23.59086,-22.53263 -30.78724,-33.57285 -19.59706,-30.06414 -27.54153,-61.50894 -25.80614,-102.14144 1.0462,-24.49603 7.31758,-57.19559 14.61822,-76.22074 0.75949,-1.9792 0.15946,-2.19808 -3.8958,-1.42108 -8.39012,1.60758 -28.80417,9.18865 -36.93641,13.7169 -35.42059,19.72316 -59.37353,49.4876 -72.00587,89.47608 -6.45267,20.42628 -8.51359,35.84425 -8.61484,64.44884 l -0.0936,26.42857 -5.68501,-11.42857 c -9.68501,-19.46976 -28.89259,-36.5806 -51.41227,-45.80004 l -7.18843,-2.94292 -0.39983,-18.12851 -0.39981,-18.12853 h -41.3859 -41.38589 v 117.23246 117.23244 l -8.92857,4.04466 c -4.91071,2.22457 -14.71429,5.79984 -21.78571,7.94504 -21.43689,6.50316 -32.82341,13.28097 -41.58189,24.75162 l -4.84669,6.3475 V 553.07621 342.87078 h 320 320 v 251.42857 c 0,138.28571 -0.32142,251.42857 -0.71428,251.42857 -0.39286,0 -0.71429,-1.04358 -0.71429,-2.31907 z"
       id="path6058"
       inkscape:connector-curvature="0"
       transform="matrix(0.26458333,0,0,0.26458333,0,26.06665)" />
    <path
       style="fill:#ff0000;fill-opacity:1;stroke:#ff0000;stroke-width:0.1913722;stroke-miterlimit:4;stroke-dasharray:none;stroke-opacity:1"
       d="m 409.47694,587.77676 c -0.20617,-0.70317 -0.64946,-2.09471 -0.98508,-3.0923 -0.51375,-1.52708 -0.59422,-1.81846 -0.50902,-1.8432 0.23702,-0.0688 1.22255,-0.2889 1.29371,-0.2889 0.0557,0 0.10847,0.38034 0.1862,1.34161 0.0597,0.73789 0.18007,2.1355 0.26756,3.1058 0.0875,0.97031 0.15062,1.82973 0.14028,1.90984 -0.0103,0.0801 -0.18748,-0.42968 -0.39365,-1.13285 z"
       id="path6060"
       inkscape:connector-curvature="0"
       transform="matrix(0.26458333,0,0,0.26458333,0,26.06665)" />
    <path
       style="fill:#ff0000;fill-opacity:1;stroke:#ff0000;stroke-width:0.1913722;stroke-miterlimit:4;stroke-dasharray:none;stroke-opacity:1"
       d="m 411.65113,603.75869 c 0,-0.34423 -0.74274,-5.74449 -0.91515,-6.65382 -0.76779,-4.04947 -1.8079,-7.98226 -3.22824,-12.20632 -0.33088,-0.98403 -0.59227,-1.79743 -0.58086,-1.80757 0.0114,-0.0101 0.21431,-0.0621 0.45091,-0.11536 0.31823,-0.0717 0.43521,-0.0778 0.44949,-0.0233 0.0516,0.19665 1.29854,4.09385 1.7103,5.34532 l 0.46738,1.42053 -0.0303,-0.81576 c -0.0294,-0.79062 -0.43513,-5.69898 -0.50951,-6.16413 l -0.0368,-0.23036 0.4248,-0.1067 c 0.23364,-0.0587 0.44001,-0.0915 0.45859,-0.0729 0.0186,0.0186 0.0718,0.52408 0.11833,1.12331 0.38286,4.93466 1.27072,13.49427 1.63214,15.73503 0.16628,1.0309 0.43748,3.16302 0.50801,3.99385 0.0352,0.41488 0.0266,0.52532 -0.0428,0.54733 -0.19299,0.0612 -0.87615,0.0853 -0.87615,0.0309 z"
       id="path6062"
       inkscape:connector-curvature="0"
       transform="matrix(0.26458333,0,0,0.26458333,0,26.06665)" />
    <path
       style="fill:#ff0000;fill-opacity:1;stroke:#ff0000;stroke-width:1.53097761;stroke-miterlimit:4;stroke-dasharray:none;stroke-opacity:1"
       d="m 176.79189,834.55985 c -2.03152,-11.96671 -2.33709,-15.49719 -2.32783,-26.89531 0.01,-11.84617 0.69739,-17.91407 2.74697,-24.23556 0.88975,-2.74422 0.90406,-2.33325 0.95373,27.39228 0.0277,16.59807 -0.0238,30.17831 -0.1146,30.17831 -0.0908,0 -0.65699,-2.89787 -1.25827,-6.43972 z"
       id="path6064"
       inkscape:connector-curvature="0"
       transform="matrix(0.26458333,0,0,0.26458333,0,26.06665)" />
    <path
       style="fill:#ff0000;fill-opacity:1;stroke:#ff0000;stroke-width:1.53097761;stroke-miterlimit:4;stroke-dasharray:none;stroke-opacity:1"
       d="m 181.04868,872.87926 -1.45966,-1.52545 -0.15565,-12.02039 c -0.0856,-6.61122 -0.13797,-28.72579 -0.11636,-49.1435 0.0216,-20.41771 0.13303,-127.07088 0.24759,-237.00704 0.18203,-174.68064 0.30115,-199.88394 0.94468,-199.88394 0.64387,0 0.73637,24.91229 0.73637,198.30428 0,175.30644 0.087,198.23211 0.7499,197.68192 0.66206,-0.54946 0.76686,4.8715 0.89465,46.27891 0.0796,25.79569 0.33008,47.46947 0.5566,48.16395 0.30742,0.94248 0.27733,1.07057 -0.11864,0.50508 -0.38777,-0.55379 -0.56941,0.71256 -0.67516,4.70701 l -0.14466,5.46462 z"
       id="path6066"
       inkscape:connector-curvature="0"
       transform="matrix(0.26458333,0,0,0.26458333,0,26.06665)" />
    <path
       style="fill:#ff0000;fill-opacity:1;stroke:#ff0000;stroke-width:3.06195521;stroke-miterlimit:4;stroke-dasharray:none;stroke-opacity:1"
       d="m 161.59842,854.72876 c -21.93995,-22.08293 -33.3996,-35.71371 -46.28439,-55.05332 -24.860475,-37.3147 -39.104128,-73.76543 -45.668424,-116.8694 -2.562734,-16.82801 -2.339415,-55.2083 0.42506,-73.05195 7.857358,-50.71636 25.376975,-95.17243 55.329394,-140.39853 11.27568,-17.02548 12.86514,-19.93369 20.49803,-37.50475 14.73717,-33.92528 25.68914,-75.56706 29.45588,-111.99783 1.38057,-13.35245 1.39313,-61.53584 0.0199,-76.26651 -2.00291,-21.48495 -8.30168,-50.7163 -15.6809,-72.77197 -1.92425,-5.75127 -3.49861,-10.9359 -3.49861,-11.52139 0,-2.93566 24.78095,0.86703 46.17669,7.08591 64.25916,18.67755 128.85281,65.50787 178.00085,129.05042 4.37349,5.6544 6.72096,7.95754 7.19897,7.06304 0.39012,-0.73003 0.95696,-9.73684 1.25963,-20.01514 1.0521,-35.72716 9.26694,-66.35537 27.14753,-101.21681 28.65502,-55.86815 82.75401,-112.853896 148.34313,-156.258797 17.0301,-11.270006 21.81788,-13.9623 22.90186,-12.878323 0.43088,0.430885 -0.29593,2.683793 -1.61514,5.006462 -14.18343,24.972178 -24.58476,52.069173 -28.51438,74.284179 -4.10625,23.213479 -3.60122,56.187609 1.22178,79.773169 10.79984,52.8136 43.59957,111.69332 87.17728,156.49445 l 11.05388,11.36421 H 417.98715 179.42787 v 17.73729 c 0,11.56762 0.35137,17.52013 1.01015,17.11297 0.60508,-0.37395 1.01015,-7.08155 1.01015,-16.72713 v -16.10282 h 321.73359 321.73359 v 242.88206 c 0,175.14106 -0.30905,243.07308 -1.10808,243.56691 -0.67499,0.41716 -1.01513,3.5003 -0.87029,7.8883 0.48346,14.64588 -0.57896,15.59821 -3.74373,3.35582 -8.27162,-31.99725 -33.93378,-77.51581 -58.63405,-104.00283 -7.83386,-8.40054 -18.90769,-22.67007 -27.38906,-35.29303 l -5.22944,-7.78306 V 589.60933 487.53831 h -39.90102 -39.90103 v 27.79873 27.79873 l -10.51183,4.92098 c -23.54823,11.02379 -40.23979,24.59476 -57.17361,46.48462 -4.41409,5.70596 -6.95898,8.15433 -8.47582,8.15433 -2.25908,0 -15.37171,-12.67987 -24.02646,-23.23351 -15.13291,-18.45315 -26.20158,-42.44783 -31.34751,-67.95523 -1.98798,-9.85405 -2.28954,-14.45554 -2.29904,-35.08033 -0.007,-14.82701 0.50113,-27.15153 1.35312,-32.82996 2.07018,-13.79758 6.89443,-36.41014 9.6894,-45.4168 1.37245,-4.42264 2.38044,-8.15609 2.23996,-8.29656 -0.48621,-0.48621 -10.32132,2.40383 -19.36402,5.69012 -41.58683,15.11342 -73.24195,48.66068 -88.20763,93.4801 -7.16498,21.45784 -8.44959,30.39051 -9.15022,63.62741 -0.55427,26.29414 -0.79,29.31532 -2.31005,29.60658 -1.24555,0.23868 -3.05657,-2.33064 -6.8547,-9.72482 -11.21969,-21.84244 -29.46111,-37.40205 -56.85989,-48.50049 l -2.77792,-1.12525 V 505.23763 487.53831 H 302.1614 262.26038 v 117.00842 117.00841 l -8.83191,3.83588 c -4.85755,2.10972 -14.25723,5.61738 -20.88818,7.79479 -25.618,8.4122 -33.98436,13.5439 -44.77768,27.4654 l -4.59563,5.92756 0.17603,51.14606 c 0.0985,28.61905 -0.23102,52.48081 -0.74816,54.17652 l -0.92419,3.03046 z m 17.68604,-25.00128 c -0.11631,-14.94972 -0.29583,-17.09836 -0.94946,-11.36422 -1.48798,13.05346 -1.09448,29.7995 0.70021,29.7995 0.21596,0 0.32812,-8.29587 0.24925,-18.43528 z m -5.18164,-25.75889 c -0.21794,-2.08344 -0.39624,-0.37881 -0.39624,3.78807 0,4.16688 0.1783,5.87151 0.39624,3.78807 0.21793,-2.08343 0.21793,-5.4927 0,-7.57614 z m 5.23394,-25.25381 -0.0911,-4.79823 -0.97985,3.40619 c -0.53892,1.87339 -0.73947,4.0326 -0.44568,4.79822 1.02399,2.66847 1.60711,1.35885 1.51663,-3.40618 z"
       id="path6068"
       inkscape:connector-curvature="0"
       transform="matrix(0.26458333,0,0,0.26458333,0,26.06665)" />
    <path
       style="fill:#ff0000;fill-opacity:1;stroke:#ff0000;stroke-width:3.06195521;stroke-miterlimit:4;stroke-dasharray:none;stroke-opacity:1"
       d="m 828.69892,898.67039 c -0.40916,-6.38921 -0.746,-134.86951 -0.74852,-285.51177 l -0.005,-273.89501 -82.79648,-0.3614 c -76.99604,-0.33609 -82.91943,-0.48436 -84.55159,-2.11657 -1.66673,-1.66678 -1.58537,-2.17551 1.61556,-10.10153 12.54585,-31.06561 30.06473,-61.55167 48.4729,-84.35175 8.89552,-11.01786 27.46251,-29.71374 37.45756,-37.71759 31.26481,-25.03628 70.34287,-41.30902 103.34531,-43.03466 l 11.9265,-0.62362 -0.54694,2.42412 c -4.92914,21.84597 -8.66747,62.63132 -8.63812,94.24214 0.0441,47.52113 7.46257,92.08058 23.14166,139.00183 7.79421,23.32493 12.77039,34.7157 28.90493,66.16499 39.99741,77.96254 62.1338,141.58559 71.32849,205.00788 2.42446,16.72318 2.92301,55.73759 0.93653,73.28914 -3.49656,30.89406 -14.70928,62.92365 -30.412,86.87312 -23.7171,36.17287 -58.32416,62.0552 -105.84984,79.16422 -10.59014,3.81241 -11.27003,3.68548 -11.4627,-2.14008 l -0.15871,-4.79823 -0.608,5.05076 c -0.51107,4.24539 -0.72663,3.19842 -1.35194,-6.56599 z"
       id="path6070"
       inkscape:connector-curvature="0"
       transform="matrix(0.26458333,0,0,0.26458333,0,26.06665)" />
    <path
       style="fill:#ff0000;fill-opacity:1;stroke:#ff0000;stroke-width:3.06195521;stroke-miterlimit:4;stroke-dasharray:none;stroke-opacity:1"
       d="m 829.69437,909.36602 c -1.02462,-1.02462 -1.61276,-5.50446 -2.08877,-15.9099 -0.36441,-7.96604 -0.77287,-135.62625 -0.9077,-283.68936 l -0.24514,-269.20565 -0.69542,242.94169 c -0.38249,133.61793 -1.06934,247.67854 -1.52633,253.46802 -0.48929,6.19865 -1.29765,10.68032 -1.96619,10.90086 -0.67826,0.22375 -3.23287,-6.04736 -6.34552,-15.5771 -10.47745,-32.07789 -29.73726,-66.0108 -52.49254,-92.48403 -13.99334,-16.27969 -20.11876,-24.03299 -28.81783,-36.47636 l -7.67838,-10.98334 V 590.44965 488.54846 H 688.03968 649.1488 v 27.55675 27.55675 l -14.39467,7.26962 c -21.96715,11.09389 -36.44962,23.13438 -54.06114,44.94559 -4.46311,5.52739 -6.98561,7.83167 -8.58123,7.83885 -3.30674,0.0149 -25.10489,-22.62188 -32.25262,-33.49346 -16.83084,-25.59941 -25.28249,-51.7057 -26.60466,-82.17918 -1.23416,-28.44462 2.48383,-59.64843 10.52324,-88.31803 1.15761,-4.1282 1.88524,-7.72533 1.61695,-7.99362 -0.86577,-0.86577 -19.91884,5.84931 -29.39274,10.3592 -22.97973,10.93912 -43.18033,28.85082 -57.43478,50.92695 -9.83675,15.23436 -19.58249,39.17317 -23.21382,57.02098 -1.92038,9.43857 -3.52718,31.54928 -3.65027,50.23043 -0.16702,25.34781 -1.9194,28.43515 -9.06389,15.96876 -14.10027,-24.60344 -27.69426,-37.25397 -52.02594,-48.41517 l -9.56095,-4.38572 V 505.99281 488.54846 H 302.1614 263.27053 v 117.03858 117.03857 l -10.49006,4.17827 c -5.76953,2.29803 -15.87752,6.03593 -22.46221,8.30643 -22.00555,7.58783 -30.44601,12.81824 -40.97795,25.3933 l -4.3566,5.20175 -0.50508,54.10815 c -0.27779,29.75948 -0.90392,54.72667 -1.3914,55.48264 -1.66724,2.5855 -43.24103,-40.48487 -57.87975,-59.96334 -35.31462,-46.99007 -55.213647,-98.55185 -57.891834,-150.00766 -1.617896,-31.08452 0.955069,-58.75054 8.099669,-87.09234 9.942094,-39.43914 23.562492,-69.68852 49.645435,-110.25694 10.16988,-15.81785 15.04541,-25.10213 21.73459,-41.38831 12.16217,-29.61133 21.34231,-63.25273 26.23159,-96.12797 2.313,-15.55255 2.63854,-79.08403 0.48395,-94.44927 -2.8455,-20.29241 -8.16408,-43.55442 -14.76757,-64.58926 -1.99533,-6.35594 -3.39938,-12.15169 -3.12011,-12.87945 1.65496,-4.31276 38.52337,3.02745 65.22092,12.98499 56.51683,21.0794 112.17322,63.11846 155.96258,117.80355 7.16673,8.94998 9.26587,11.0114 9.772,9.59645 0.35452,-0.99113 0.91665,-8.64256 1.24917,-17.00318 1.43498,-36.07983 8.22073,-61.92632 25.44695,-96.9258 17.35311,-35.25727 39.97681,-65.3195 74.89253,-99.516672 25.90666,-25.373525 47.59332,-42.792885 78.99598,-63.451855 16.65632,-10.957757 18.94229,-12.1005736 20.69625,-10.346614 0.84238,0.842384 -0.47007,4.204516 -5.06684,12.97979 -12.48684,23.837464 -20.95909,47.098899 -24.73279,67.906392 -2.83149,15.612349 -3.05043,51.467579 -0.41615,68.150849 4.07344,25.79758 12.1275,49.63196 26.46614,78.32127 15.51414,31.0413 33.91448,57.22535 60.16105,85.61043 l 14.24424,15.40482 7.69116,-0.191 c 7.4034,-0.18385 7.46499,-0.2049 1.64628,-0.56254 -7.18854,-0.44184 -10.05094,-2.4128 -9.08623,-6.25652 1.95965,-7.80787 16.49836,-38.32212 25.84254,-54.23901 6.72095,-11.44851 17.41704,-27.18581 24.62467,-36.23065 9.12181,-11.44694 32.55755,-34.43336 43.45579,-42.62266 31.28354,-23.50747 66.81872,-37.50611 99.91159,-39.3589 l 12.02832,-0.67344 -0.69861,3.44678 c -6.63071,32.71473 -9.94039,81.6579 -7.90059,116.83361 2.42742,41.86046 9.62189,78.32924 23.46376,118.93789 6.93672,20.35062 11.11145,29.87107 27.24621,62.13475 41.27169,82.52845 61.00152,138.31166 71.27709,201.52543 2.20552,13.56805 3.16849,63.87954 1.50123,78.43314 -5.06252,44.19067 -22.95368,83.54266 -51.5179,113.3147 -22.7144,23.67485 -48.7047,40.07922 -83.68987,52.82278 -10.42119,3.79598 -12.52827,4.08367 -14.6163,1.99563 z"
       id="path6072"
       inkscape:connector-curvature="0"
       transform="matrix(0.26458333,0,0,0.26458333,0,26.06665)" />
    <path
       style="fill:#ff0000;fill-opacity:1;stroke:#ff0000;stroke-width:3.06195521;stroke-miterlimit:4;stroke-dasharray:none;stroke-opacity:1"
       d="m 829.54625,910.47437 c -2.40885,-1.7614 -3.46449,-15.43431 -3.68,-47.66439 -0.11288,-16.88146 -0.42859,-22.88525 -1.03966,-19.77042 -1.80907,9.22168 -3.7912,7.41146 -9.32242,-8.51385 -5.85488,-16.85719 -9.5897,-25.60715 -17.36159,-40.67479 -10.13308,-19.64537 -21.81871,-36.82287 -39.3309,-57.81509 -8.11091,-9.72272 -18.82177,-23.35978 -23.8019,-30.30457 l -9.05481,-12.62691 -0.0173,-101.77287 -0.0173,-101.77287 h -37.88072 -37.88072 l -0.0113,27.52666 -0.0113,27.52665 -14.38335,7.31473 c -21.6216,10.99578 -34.9644,22.02671 -55.61229,45.97648 -3.85961,4.47681 -6.61834,6.81287 -8.04556,6.81287 -3.23096,0 -26.29814,-23.84069 -33.23084,-34.34519 -21.04854,-31.89289 -29.2527,-65.98689 -26.29502,-109.27421 1.36139,-19.92473 3.84325,-36.17708 8.2867,-54.26528 1.69182,-6.88693 2.81051,-12.7872 2.486,-13.11171 -0.8897,-0.8897 -15.89859,4.49624 -26.62533,9.55451 -14.58662,6.87841 -25.66617,14.78846 -38.02492,27.14721 -15.88788,15.88788 -26.3143,32.55313 -35.1026,56.10682 -7.50228,20.10703 -9.45972,32.46825 -10.39748,65.65992 -0.63101,22.33422 -1.58645,30.60667 -3.78941,32.80964 -1.19593,1.19593 -2.20201,0.13428 -6.84424,-7.22229 -17.42839,-27.61884 -28.24481,-37.55461 -53.69794,-49.32594 l -8.73701,-4.04061 -0.0405,-17.42513 -0.0404,-17.42513 H 302.1614 264.28068 v 116.98466 116.98464 l -12.37437,4.69971 c -6.8059,2.58482 -18.42692,6.97512 -25.82448,9.7562 -16.5607,6.2259 -22.93636,10.05271 -31.95137,19.17787 -6.94657,7.03144 -7.02319,7.16886 -7.77681,13.94844 -0.41862,3.76587 -0.78447,22.79871 -0.81299,42.29519 -0.0666,45.48677 -0.85115,63.04172 -2.81753,63.04172 -3.64275,0 -38.14982,-35.32091 -54.44081,-55.72478 -27.15671,-34.01279 -47.601509,-75.76248 -56.311028,-114.991 -4.889965,-22.02489 -5.925815,-34.24886 -5.392771,-63.63961 0.528629,-29.14726 1.899644,-40.2748 7.891181,-64.04701 9.538456,-37.84506 21.239631,-64.42618 46.173948,-104.8916 17.54655,-28.47595 24.16544,-42.20046 33.1271,-68.69024 9.15853,-27.0717 16.56968,-58.87924 18.66359,-80.10135 0.67631,-6.8545 0.93832,-26.3094 0.68022,-50.50763 -0.37861,-35.49593 -0.63945,-40.47393 -2.65776,-50.72169 -2.81266,-14.28092 -8.01066,-35.42282 -12.69892,-51.65049 -4.52418,-15.65973 -4.45803,-15.80046 7.00277,-14.89717 14.55123,1.14686 39.69402,7.60772 59.9482,15.40472 30.20987,11.62952 59.77662,29.13677 90.07946,53.33841 15.47343,12.35799 46.47644,43.23726 60.10919,59.86926 7.62175,9.29857 10.24551,11.89717 10.70927,10.6066 0.33784,-0.94016 0.93199,-8.07333 1.32033,-15.8515 1.76305,-35.31156 8.34997,-60.21932 24.84382,-93.94419 12.09981,-24.7404 27.36803,-47.94508 45.78824,-69.58912 10.3066,-12.11042 39.8481,-41.604043 53.70382,-53.616777 20.74418,-17.984943 59.33625,-45.848135 71.60669,-51.699499 3.41403,-1.6280346 3.81266,-1.6361516 5.34008,-0.108733 1.52743,1.527419 0.96749,3.069119 -7.50079,20.652165 -10.04855,20.864218 -17.19927,40.301869 -20.66574,56.175221 -2.03262,9.307582 -2.25316,13.134943 -2.28167,39.597893 -0.0287,26.65183 0.1782,30.32984 2.29357,40.77245 4.97212,24.54497 12.95965,46.38269 26.83812,73.37479 16.25262,31.60955 31.20612,52.68573 59.60545,84.01074 9.8643,10.88052 12.30117,13.07244 11.12461,10.00635 -0.83809,-2.18401 5.866,-18.20577 15.97356,-38.17436 9.40998,-18.59049 22.73757,-39.90503 33.65418,-53.82242 7.28581,-9.28857 32.2156,-34.31012 41.90286,-42.0571 23.51543,-18.80545 54.59645,-33.55553 82.69927,-39.24647 13.83597,-2.80184 33.47259,-3.9381 33.45782,-1.936 -0.006,0.77946 -0.88497,6.41747 -1.95383,12.52889 -5.32245,30.43236 -7.94781,75.34824 -6.1701,105.56094 2.4844,42.2231 8.54708,74.49404 21.38962,113.85446 7.67425,23.52042 10.91315,31.20418 27.16202,64.43746 31.60214,64.6348 46.19041,99.63363 57.90352,138.91675 14.17268,47.53197 18.66846,79.88067 17.54582,126.2483 -0.71753,29.63516 -4.55745,49.36582 -14.36233,73.79779 -10.39974,25.91423 -23.23977,44.89121 -44.11765,65.20383 -21.55211,20.9686 -47.69784,36.79256 -78.93284,47.77185 -9.97054,3.50472 -11.62084,3.71432 -14.22897,1.8072 z"
       id="path6074"
       inkscape:connector-curvature="0"
       transform="matrix(0.26458333,0,0,0.26458333,0,26.06665)" />
    <path
       style="fill:none;stroke:#000000;stroke-width:0.26458332px;stroke-linecap:butt;stroke-linejoin:miter;stroke-opacity:1"
       d="m 69.924262,217.50007 c 0.256175,0.0403 0.51235,0.0806 0.768528,0.12086 0,-0.17818 -0.04455,-0.13363 0.133633,-0.13363 0.04454,0 0.08909,0 0.133635,0 0.04455,0 0.102138,0.0315 0.133636,0 0.0315,-0.0315 -0.0315,-0.10214 0,-0.13364 0.03216,-0.0322 0.502383,0.0322 0.534538,0 0.0315,-0.0315 -0.0315,-0.10214 0,-0.13363 0.063,-0.063 0.204274,0.063 0.267269,0 0.0315,-0.0315 -0.0315,-0.10214 0,-0.13364 0.06682,-0.0668 0.334089,0.0668 0.400904,0 0.0315,-0.0315 -0.0315,-0.10213 0,-0.13363 0.06682,-0.0668 0.334087,0.0668 0.400905,0 0.0315,-0.0315 -0.0315,-0.10214 0,-0.13364 0.063,-0.063 0.204274,0.063 0.267271,0 0.0315,-0.0315 -0.0315,-0.10213 0,-0.13363 0.06682,-0.0668 0.334087,0.0668 0.400902,0 0.0315,-0.0315 -0.0315,-0.10214 0,-0.13364 0.063,-0.063 0.204275,0.063 0.267272,0 0.0315,-0.0315 -0.0315,-0.10213 0,-0.13363 0.06681,-0.0668 0.334087,0.0668 0.400905,0 0.0315,-0.0315 -0.0315,-0.10214 0,-0.13364 0.06299,-0.063 0.187584,0.0399 0.267268,0 0.05635,-0.0282 0.07729,-0.10546 0.133633,-0.13363 0.07968,-0.0398 0.204275,0.063 0.267272,0 0.0315,-0.0315 -0.0315,-0.10214 0,-0.13364 0.063,-0.063 0.187584,0.0399 0.267269,0 0.05634,-0.0282 0.07729,-0.10546 0.133636,-0.13363 0.03984,-0.0199 0.102134,0.0315 0.133633,0 0.0315,-0.0315 -0.0315,-0.10214 0,-0.13363 0.063,-0.063 0.204274,0.063 0.267269,0 0.0315,-0.0315 -0.0315,-0.10214 0,-0.13364 0.063,-0.063 0.204274,0.063 0.267271,0 0.0315,-0.0315 -0.0315,-0.10214 0,-0.13364 0.0315,-0.0315 0.09379,0.0199 0.133633,0 0.05635,-0.0282 0.07729,-0.10546 0.133636,-0.13363 0.03984,-0.0199 0.102137,0.0315 0.133636,0 0.0315,-0.0315 -0.0315,-0.10214 0,-0.13363 0.0315,-0.0315 0.09379,0.0199 0.133633,0 0.05635,-0.0282 0.07729,-0.10547 0.133635,-0.13364 0.03984,-0.0199 0.102138,0.0315 0.133634,0 0.0315,-0.0315 -0.0315,-0.10214 0,-0.13363 0.0315,-0.0315 0.102137,0.0315 0.133635,0 0.0315,-0.0315 -0.0315,-0.10214 0,-0.13364 0.063,-0.063 0.204275,0.063 0.267269,0 0.0315,-0.0315 -0.0315,-0.10214 0,-0.13363 0.0315,-0.0315 0.102137,0.0315 0.133636,0 0.0315,-0.0315 -0.0315,-0.10214 0,-0.13364 0.0315,-0.0315 0.09379,0.0199 0.133636,0 0.05634,-0.0282 0.07729,-0.10546 0.133633,-0.13363 0.03984,-0.0199 0.102137,0.0315 0.133636,0 0.0315,-0.0315 -0.0315,-0.10214 0,-0.13364 0.0315,-0.0315 0.102137,0.0315 0.133633,0 0.0315,-0.0315 -0.0315,-0.10213 0,-0.13363 0.0315,-0.0315 0.102137,0.0315 0.133635,0 0.0315,-0.0315 -0.0315,-0.10214 0,-0.13364 0.0315,-0.0315 0.102137,0.0315 0.133636,0 0.0315,-0.0315 -0.0315,-0.10213 0,-0.13363 0.0315,-0.0315 0.102137,0.0315 0.133633,0 0.0315,-0.0315 -0.0315,-0.10214 0,-0.13364 0.0315,-0.0315 0.102137,0.0315 0.133636,0 0.0315,-0.0315 -0.0315,-0.10213 0,-0.13363 0.0315,-0.0315 0.102137,0.0315 0.133636,0 0.0315,-0.0315 -0.0315,-0.10214 0,-0.13364 0.0315,-0.0315 0.102134,0.0315 0.133633,0 0.0315,-0.0315 -0.0315,-0.10213 0,-0.13363 0.0315,-0.0315 0.102137,0.0315 0.133636,0 0.0315,-0.0315 -0.0315,-0.10214 0,-0.13364 0.0315,-0.0315 0.102137,0.0315 0.133633,0 0.0315,-0.0315 -0.01992,-0.0938 0,-0.13363 0.05634,-0.11269 0.210926,-0.15458 0.267271,-0.26727 0.01992,-0.0398 -0.0315,-0.10214 0,-0.13364 0.0315,-0.0315 0.102137,0.0315 0.133633,0 0.0315,-0.0315 -0.0315,-0.10213 0,-0.13363 0.0315,-0.0315 0.102137,0.0315 0.133636,0 0,-0.35636 -0.04454,0.0445 0.133636,-0.13363 0.06299,-0.063 -0.063,-0.20428 0,-0.26727 0.0315,-0.0315 0.102134,0.0315 0.133633,0 0.0315,-0.0315 -0.0315,-0.10214 0,-0.13364 0.0315,-0.0315 0.102137,0.0315 0.133636,0 0.06299,-0.063 -0.063,-0.20427 0,-0.26727 0.0315,-0.0315 0.102137,0.0315 0.133633,0 0.0315,-0.0315 -0.0315,-0.10213 0,-0.13363 0.0315,-0.0315 0.102137,0.0315 0.133635,0 0.063,-0.063 -0.06299,-0.20428 0,-0.26727 0.0315,-0.0315 0.102138,0.0315 0.133636,0 0.0315,-0.0315 -0.0315,-0.10214 0,-0.13364 0.0315,-0.0315 0.102137,0.0315 0.133633,0 0.063,-0.063 -0.06299,-0.20427 0,-0.26727 0.0315,-0.0315 0.102137,0.0315 0.133636,0 0.063,-0.063 -0.063,-0.20427 0,-0.26727 0.0315,-0.0315 0.102137,0.0315 0.133636,0 0.0315,-0.0315 -0.01992,-0.0938 0,-0.13363 0.02817,-0.0563 0.10546,-0.0773 0.133633,-0.13363 0.01992,-0.0399 -0.0315,-0.10214 0,-0.13364 0.0315,-0.0315 0.102137,0.0315 0.133636,0 0.06299,-0.063 -0.063,-0.20427 0,-0.26727 0.0315,-0.0315 0.102137,0.0315 0.133635,0 0.0315,-0.0315 -0.01992,-0.0938 0,-0.13364 0.02817,-0.0563 0.105461,-0.0773 0.133634,-0.13363 0.01992,-0.0398 -0.01992,-0.0938 0,-0.13363 0.02817,-0.0563 0.105462,-0.0773 0.133635,-0.13364 0.01992,-0.0398 -0.01992,-0.0938 0,-0.13364 0.02817,-0.0563 0.105461,-0.0773 0.133633,-0.13363 0.01992,-0.0398 -0.0315,-0.10214 0,-0.13363 0.0315,-0.0315 0.102137,0.0315 0.133636,0 0.063,-0.063 -0.063,-0.20428 0,-0.26727 0.0315,-0.0315 0.102137,0.0315 0.133636,0 0.063,-0.063 -0.063,-0.20428 0,-0.26727 0.0315,-0.0315 0.102137,0.0315 0.133633,0 0.063,-0.063 -0.063,-0.20428 0,-0.26727 0.0315,-0.0315 0.102137,0.0315 0.133636,0 0.06299,-0.063 -0.063,-0.20428 0,-0.26727 0.0315,-0.0315 0.102137,0.0315 0.133635,0 0.063,-0.063 -0.063,-0.20428 0,-0.26727 0.0315,-0.0315 0.102135,0.0315 0.133634,0 0.0315,-0.0315 -0.01992,-0.0938 0,-0.13364 0.02817,-0.0563 0.105462,-0.0773 0.133635,-0.13363 0.01992,-0.0398 -0.01992,-0.0938 0,-0.13364 0.02817,-0.0563 0.105461,-0.0773 0.133633,-0.13363 0.01992,-0.0398 -0.01992,-0.0938 0,-0.13363 0.02817,-0.0564 0.105463,-0.0773 0.133636,-0.13364 0.01992,-0.0398 -0.0315,-0.10214 0,-0.13363 0.0315,-0.0315 0.102137,0.0315 0.133636,0 0.06681,-0.0668 -0.06682,-0.33409 0,-0.40091 0.0315,-0.0315 0.102137,0.0315 0.133633,0 0.063,-0.063 -0.063,-0.20427 0,-0.26727 0.0315,-0.0315 0.102137,0.0315 0.133636,0 0.06682,-0.0668 -0.06682,-0.33409 0,-0.4009 0.0315,-0.0315 0.102137,0.0315 0.133636,0 0.06682,-0.0668 -0.06682,-0.33409 0,-0.40091 0.0315,-0.0315 0.102134,0.0315 0.133633,0 0.063,-0.063 -0.03984,-0.18758 0,-0.26727 0.02817,-0.0563 0.105463,-0.0773 0.133635,-0.13363 0.03984,-0.0797 -0.063,-0.20427 0,-0.26727 0.0315,-0.0315 0.102137,0.0315 0.133633,0 0.06682,-0.0668 -0.06682,-0.33409 0,-0.4009 0.0315,-0.0315 0.102138,0.0315 0.133636,0 0.06682,-0.0668 -0.06682,-0.33409 0,-0.40091 0.0315,-0.0315 0.102137,0.0315 0.133636,0 0.063,-0.063 -0.063,-0.20427 0,-0.26727 0.0315,-0.0315 0.102137,0.0315 0.133633,0 0.06682,-0.0668 -0.06682,-0.33409 0,-0.4009 0.0315,-0.0315 0.102137,0.0315 0.133636,0 0.06682,-0.0668 -0.06682,-0.33409 0,-0.40091 0.0315,-0.0315 0.102137,0.0315 0.133636,0 0.06299,-0.063 -0.063,-0.20427 0,-0.26727 0.0315,-0.0315 0.102134,0.0315 0.133633,0 0.06682,-0.0668 -0.06682,-0.33409 0,-0.4009 0.0315,-0.0315 0.102137,0.0315 0.133635,0 0.06682,-0.0668 -0.06682,-0.33409 0,-0.4009 0.0315,-0.0315 0.102138,0.0315 0.133634,0 0.063,-0.063 -0.06299,-0.20428 0,-0.26728 0.0315,-0.0315 0.102137,0.0315 0.133635,0 0.06682,-0.0668 -0.06682,-0.33408 0,-0.4009 0.0315,-0.0315 0.102137,0.0315 0.133636,0 0.063,-0.063 -0.063,-0.20427 0,-0.26727 0.0315,-0.0315 0.102137,0.0315 0.133633,0 0.06682,-0.0668 -0.06682,-0.33409 0,-0.4009 0.0315,-0.0315 0.102137,0.0315 0.133636,0 0.063,-0.063 -0.063,-0.20428 0,-0.26727 0.0315,-0.0315 0.102137,0.0315 0.133636,0 0.06682,-0.0668 -0.06682,-0.33409 0,-0.40091 0.0315,-0.0315 0.102134,0.0315 0.133633,0 0.06682,-0.0668 -0.06682,-0.33408 0,-0.4009 0.0315,-0.0315 0.102137,0.0315 0.133635,0 0.06682,-0.0668 -0.06682,-0.33409 0,-0.4009 0.0315,-0.0315 0.102138,0.0315 0.133634,0 0.03216,-0.0322 -0.03216,-0.50239 0,-0.53454 0.0315,-0.0315 0.102137,0.0315 0.133635,0 0.063,-0.063 -0.03984,-0.18759 0,-0.26727 0.02817,-0.0564 0.105463,-0.0773 0.133636,-0.13364 0.03984,-0.0797 -0.03984,-0.18758 0,-0.26727 0.02817,-0.0563 0.10546,-0.0773 0.133633,-0.13363 0.02649,-0.053 -0.02732,-0.37359 0,-0.40091 0.0315,-0.0315 0.102137,0.0315 0.133636,0 0.06682,-0.0668 -0.06682,-0.33409 0,-0.4009 0.0315,-0.0315 0.102137,0.0315 0.133636,0 0.06682,-0.0668 -0.06682,-0.33409 0,-0.40091 0.0315,-0.0315 0.102134,0.0315 0.133633,0 0.02732,-0.0273 -0.02649,-0.34791 0,-0.4009 0.02817,-0.0564 0.105463,-0.0773 0.133636,-0.13364 0.03984,-0.0797 -0.063,-0.20427 0,-0.26726 0.0315,-0.0315 0.102137,0.0315 0.133633,0 0.06682,-0.0668 -0.06682,-0.33409 0,-0.40091 0.0315,-0.0315 0.102137,0.0315 0.133635,0 0.06682,-0.0668 -0.06682,-0.33409 0,-0.4009 0.0315,-0.0315 0.102137,0.0315 0.133636,0 0.06682,-0.0668 -0.06682,-0.33409 0,-0.40091 0.0315,-0.0315 0.102137,0.0315 0.133633,0 0.06682,-0.0668 -0.06682,-0.33408 0,-0.4009 0.0315,-0.0315 0.102137,0.0315 0.133636,0 0.02732,-0.0273 -0.02649,-0.34792 0,-0.40091 0.02817,-0.0563 0.105463,-0.0773 0.133636,-0.13363 0.02649,-0.053 -0.02732,-0.37358 0,-0.4009 0.0315,-0.0315 0.102134,0.0315 0.133633,0 0.02732,-0.0273 -0.02649,-0.34792 0,-0.40091 0.02817,-0.0563 0.105463,-0.0773 0.133636,-0.13364 0.03625,-0.0725 -0.03657,-0.49797 0,-0.53453 0.0315,-0.0315 0.102137,0.0315 0.133635,0 0.03216,-0.0322 -0.03216,-0.50239 0,-0.53454 0.0315,-0.0315 0.102135,0.0315 0.133633,0 0.0043,-0.004 0,-0.3685 0,-0.40091 0,-0.31339 -0.0315,0.063 0.133636,-0.26727 0.02416,-0.0483 0,-0.57522 0,-0.66817 0,-0.0446 -0.0315,-0.10214 0,-0.13363 0.0315,-0.0315 0.102137,0.0315 0.133633,0 0.0315,-0.0315 0,-0.0891 0,-0.13364 0,-0.0445 0,-0.0891 0,-0.13363 0,-0.31182 0,-0.62363 0,-0.93545 0,-0.0445 -0.0315,-0.10213 0,-0.13363 0.0315,-0.0315 0.102137,0.0315 0.133636,0 0.0315,-0.0315 0,-0.0891 0,-0.13364 0,-0.26727 0,-0.53454 0,-0.80181 0,-0.0445 0,-0.0891 0,-0.13363 0,-0.0446 -0.0315,-0.10214 0,-0.13363 0.0315,-0.0315 0.102137,0.0315 0.133636,0 0.0315,-0.0315 0,-0.0891 0,-0.13364 0,-0.0446 0,-0.0891 0,-0.13364 0,-0.0947 -0.01728,-0.76725 0,-0.8018 0.02817,-0.0564 0.10546,-0.0773 0.133633,-0.13364 0.01992,-0.0398 0,-0.0891 0,-0.13363 0,-0.22273 0,-0.44545 0,-0.66818 0,-0.0445 0,-0.0891 0,-0.13363 0,-0.0445 -0.01992,-0.0938 0,-0.13364 0.02817,-0.0563 0.105463,-0.0773 0.133636,-0.13363 0.01728,-0.0345 0,-0.70709 0,-0.80181 0,-0.0445 0,-0.0891 0,-0.13363 0,-0.0445 -0.0315,-0.10214 0,-0.13364 0.0315,-0.0315 0.102137,0.0315 0.133635,0 0.0315,-0.0315 0,-0.0891 0,-0.13363 0,-0.0446 0,-0.0891 0,-0.13364 0,-0.26727 0,-0.53454 0,-0.80181 0,-0.0445 0,-0.0891 0,-0.13363 0,-0.0445 -0.01992,-0.0938 0,-0.13364 0.02817,-0.0563 0.105461,-0.0773 0.133633,-0.13363 0.01728,-0.0345 0,-0.70709 0,-0.80181 0,-0.57908 0,-1.15817 0,-1.73725 0,-0.063 -0.0061,-0.66212 0,-0.66818 0.0315,-0.0315 0.102138,0.0315 0.133636,0 0.0043,-0.004 0,-0.36849 0,-0.4009 0,-0.66817 0,-1.33635 0,-2.00452 0,-0.0324 -0.0043,-0.39661 0,-0.40091 0.0315,-0.0315 0.102137,0.0315 0.133633,0 0.0054,-0.005 0,-0.48546 0,-0.53453 0,-1.06908 0,-2.13816 0,-3.20724 0,-0.4009 0,-0.80181 0,-1.20271 0,-0.0446 0,-0.0891 0,-0.13364 0,-0.0445 -0.0315,-0.10213 0,-0.13363 0.0315,-0.0315 0.102137,0.0315 0.133636,0 0.0315,-0.0315 0,-0.0891 0,-0.13364 0,-0.0445 0,-0.0891 0,-0.13363 0,-0.31182 0,-0.62363 0,-0.93544 0,-0.0446 -0.0315,-0.10214 0,-0.13364 0.0315,-0.0315 0.102137,0.0315 0.133636,0 0.0061,-0.006 0,-0.60516 0,-0.66817 0,-0.3134 -0.0315,0.063 0.133633,-0.26727 0.01992,-0.0398 0,-0.0891 0,-0.13364 0,-0.0445 0,-0.0891 0,-0.13363 0,-0.22273 0,-0.44545 0,-0.66817 0,-0.0445 0,-0.0891 0,-0.13364 0,-0.0446 -0.0315,-0.10214 0,-0.13364 0.0315,-0.0315 0.102137,0.0315 0.133636,0 0.0061,-0.006 0,-0.60516 0,-0.66817 0,-0.44545 0,-0.8909 0,-1.33635 0,-0.0792 -0.02741,-0.48743 0,-0.53454 0.08867,-0.15237 0.21464,-0.27974 0.321961,-0.41961"
       id="path6076"
       inkscape:connector-curvature="0" />
    <path
       style="fill:none;stroke:#ff0000;stroke-width:0.26458332px;stroke-linecap:butt;stroke-linejoin:miter;stroke-opacity:1"
       d="M 69.924262,217.50007 C 99.9747,194.75742 89.990887,164.81649 89.990887,164.81649"
       id="path6080"
       inkscape:connector-curvature="0" />
    <path
       style="fill:none;stroke:#ff0000;stroke-width:0.26458332px;stroke-linecap:butt;stroke-linejoin:miter;stroke-opacity:1"
       d="M 192.07558,209.4505 C 174.43601,191.35564 172.01523,170.16188 172.01523,170.16188"
       id="path6082"
       inkscape:connector-curvature="0"
       sodipodi:nodetypes="cc" />
    <path
       style="fill:#ff0000;fill-opacity:0.51764709;stroke:#ff0000;stroke-width:1.53097761;stroke-miterlimit:4;stroke-dasharray:none;stroke-opacity:0"
       d="M 266.20935,606.33641 V 491.38624 h 36.11296 36.11295 v 17.2024 c 0,9.83394 0.19124,17.08421 0.44646,16.92647 0.53894,-0.33308 1.26924,1.4339 2.31138,5.59252 0.66352,2.64775 0.77769,8.33242 0.77769,38.7204 v 35.61704 l -2.05692,8.19273 c -10.03767,39.9799 -32.78153,74.07062 -69.53764,104.22977 l -4.16688,3.41902 z"
       id="path6090"
       inkscape:connector-curvature="0"
       transform="matrix(0.26458333,0,0,0.26458333,0,26.06665)" />
    <path
       style="fill:#ff0000;fill-opacity:0.51764706;stroke:#ff0000;stroke-width:3.06195521;stroke-miterlimit:4;stroke-dasharray:none;stroke-opacity:0"
       d="m 717.94938,683.12182 c -7.58135,-8.33203 -21.06268,-26.29731 -28.23657,-37.62818 -11.74298,-18.54758 -25.37905,-49.06889 -32.2685,-72.22591 -5.22411,-17.55945 -5.64063,-21.4431 -5.64063,-52.59397 v -29.22839 h 35.86042 35.86041 l 0.0266,79.54952 c 0.0146,43.75223 0.30015,88.29996 0.63446,98.99495 0.33431,10.69499 0.36047,19.44543 0.0581,19.44543 -0.30234,0 -3.1348,-2.84105 -6.29435,-6.31345 z"
       id="path6092"
       inkscape:connector-curvature="0"
       transform="matrix(0.26458333,0,0,0.26458333,0,26.06665)" />
  </g>
</svg>
